<?xml version="1.0" encoding="utf-8"?>
<!-- Generator: Adobe Illustrator 19.0.0, SVG Export Plug-In . SVG Version: 6.00 Build 0)  -->
<svg version="1.1"
	 id="svg2" sodipodi:docname="F_icon_reversed.svg" sodipodi:version="0.32" inkscape:output_extension="org.inkscape.output.svg.inkscape" inkscape:version="0.46" xmlns:rdf="http://www.w3.org/1999/02/22-rdf-syntax-ns#" xmlns:cc="http://creativecommons.org/ns#" xmlns:inkscape="http://www.inkscape.org/namespaces/inkscape" xmlns:sodipodi="http://sodipodi.sourceforge.net/DTD/sodipodi-0.dtd" xmlns:svg="http://www.w3.org/2000/svg" xmlns:dc="http://purl.org/dc/elements/1.1/"
	 xmlns="http://www.w3.org/2000/svg" xmlns:xlink="http://www.w3.org/1999/xlink" x="0px" y="0px" viewBox="-135 37 128 128"
	 style="enable-background:new -135 37 128 128;" xml:space="preserve">
<defs>
	
	
		<inkscape:perspective  inkscape:persp3d-origin="64 : 42.666667 : 1" inkscape:vp_z="128 : 64 : 1" id="perspective20" sodipodi:type="inkscape:persp3d" inkscape:vp_x="0 : 64 : 1" inkscape:vp_y="0 : 1000 : 0">
		</inkscape:perspective>
</defs>
<sodipodi:namedview  inkscape:window-x="25" inkscape:window-y="25" inkscape:window-width="644" inkscape:current-layer="svg2" inkscape:pageopacity="0.0" inkscape:window-height="669" inkscape:pageshadow="2" id="base" bordercolor="#666666" inkscape:cx="64" gridtolerance="10.0" guidetolerance="10.0" objecttolerance="10.0" pagecolor="#ffffff" borderopacity="1.0" inkscape:cy="64" inkscape:zoom="3.609375" showgrid="false">
	</sodipodi:namedview>
<g id="Layer_4">
	<g id="g8">
	</g>
</g>
<g>
	<g>
		<path d="M-92.3,67.2v83.6c0,1.2-0.3,2.2-0.9,3c-0.6,0.8-1.5,1.3-2.6,1.3c-0.8,0-1.6-0.2-2.3-0.6l-33.1-16.6
			c-1-0.5-1.8-1.3-2.5-2.4s-1-2.2-1-3.3V50.9c0-1,0.2-1.8,0.7-2.4c0.5-0.7,1.2-1,2.1-1c0.7,0,1.7,0.4,3.1,1.1l36.4,18.2
			C-92.4,66.9-92.3,67.1-92.3,67.2L-92.3,67.2z M-87.7,74.4l38,61.7l-38-19V74.4z M-7.2,75.6v75.1c0,1.2-0.3,2.1-1,2.9
			c-0.7,0.7-1.6,1.1-2.7,1.1c-1.1,0-2.3-0.3-3.3-0.9l-31.4-15.7L-7.2,75.6z M-7.4,67.1c0,0.1-6.1,10.1-18.3,29.9
			s-19.3,31.4-21.4,34.7l-27.8-45.2L-51.8,49c0.8-1.3,2-2,3.7-2c0.7,0,1.3,0.1,1.8,0.4l38.5,19.2C-7.5,66.8-7.4,66.9-7.4,67.1
			L-7.4,67.1z"/>
	</g>
</g>
</svg>
